<svg width="225" height="52" viewBox="0 0 225 52" fill="none" xmlns="http://www.w3.org/2000/svg">
<path d="M65.888 25.624C65.888 23.992 66.264 22.528 67.016 21.232C67.784 19.936 68.816 18.928 70.112 18.208C71.424 17.472 72.856 17.104 74.408 17.104C76.184 17.104 77.76 17.544 79.136 18.424C80.528 19.288 81.536 20.52 82.16 22.12H78.872C78.44 21.24 77.84 20.584 77.072 20.152C76.304 19.72 75.416 19.504 74.408 19.504C73.304 19.504 72.32 19.752 71.456 20.248C70.592 20.744 69.912 21.456 69.416 22.384C68.936 23.312 68.696 24.392 68.696 25.624C68.696 26.856 68.936 27.936 69.416 28.864C69.912 29.792 70.592 30.512 71.456 31.024C72.32 31.52 73.304 31.768 74.408 31.768C75.416 31.768 76.304 31.552 77.072 31.12C77.84 30.688 78.44 30.032 78.872 29.152H82.16C81.536 30.752 80.528 31.984 79.136 32.848C77.76 33.712 76.184 34.144 74.408 34.144C72.84 34.144 71.408 33.784 70.112 33.064C68.816 32.328 67.784 31.312 67.016 30.016C66.264 28.72 65.888 27.256 65.888 25.624ZM92.2025 20.56C93.2105 20.56 94.1065 20.776 94.8905 21.208C95.6905 21.64 96.3145 22.28 96.7625 23.128C97.2265 23.976 97.4585 25 97.4585 26.2V34H94.7465V26.608C94.7465 25.424 94.4505 24.52 93.8585 23.896C93.2665 23.256 92.4585 22.936 91.4345 22.936C90.4105 22.936 89.5945 23.256 88.9865 23.896C88.3945 24.52 88.0985 25.424 88.0985 26.608V34H85.3625V16.24H88.0985V22.312C88.5625 21.752 89.1465 21.32 89.8505 21.016C90.5705 20.712 91.3545 20.56 92.2025 20.56ZM103.684 22.696C104.084 22.024 104.612 21.504 105.268 21.136C105.94 20.752 106.732 20.56 107.644 20.56V23.392H106.948C105.876 23.392 105.06 23.664 104.5 24.208C103.956 24.752 103.684 25.696 103.684 27.04V34H100.948V20.776H103.684V22.696ZM115.895 34.216C114.647 34.216 113.519 33.936 112.511 33.376C111.503 32.8 110.711 32 110.135 30.976C109.559 29.936 109.271 28.736 109.271 27.376C109.271 26.032 109.567 24.84 110.159 23.8C110.751 22.76 111.559 21.96 112.583 21.4C113.607 20.84 114.751 20.56 116.015 20.56C117.279 20.56 118.423 20.84 119.447 21.4C120.471 21.96 121.279 22.76 121.871 23.8C122.463 24.84 122.759 26.032 122.759 27.376C122.759 28.72 122.455 29.912 121.847 30.952C121.239 31.992 120.407 32.8 119.351 33.376C118.311 33.936 117.159 34.216 115.895 34.216ZM115.895 31.84C116.599 31.84 117.255 31.672 117.863 31.336C118.487 31 118.991 30.496 119.375 29.824C119.759 29.152 119.951 28.336 119.951 27.376C119.951 26.416 119.767 25.608 119.399 24.952C119.031 24.28 118.543 23.776 117.935 23.44C117.327 23.104 116.671 22.936 115.967 22.936C115.263 22.936 114.607 23.104 113.999 23.44C113.407 23.776 112.935 24.28 112.583 24.952C112.231 25.608 112.055 26.416 112.055 27.376C112.055 28.8 112.415 29.904 113.135 30.688C113.871 31.456 114.791 31.84 115.895 31.84ZM132.136 20.56C133.176 20.56 134.104 20.776 134.92 21.208C135.752 21.64 136.4 22.28 136.864 23.128C137.328 23.976 137.56 25 137.56 26.2V34H134.848V26.608C134.848 25.424 134.552 24.52 133.96 23.896C133.368 23.256 132.56 22.936 131.536 22.936C130.512 22.936 129.696 23.256 129.088 23.896C128.496 24.52 128.2 25.424 128.2 26.608V34H125.464V20.776H128.2V22.288C128.648 21.744 129.216 21.32 129.904 21.016C130.608 20.712 131.352 20.56 132.136 20.56ZM146.786 34.216C145.538 34.216 144.41 33.936 143.402 33.376C142.394 32.8 141.602 32 141.026 30.976C140.45 29.936 140.162 28.736 140.162 27.376C140.162 26.032 140.458 24.84 141.05 23.8C141.642 22.76 142.45 21.96 143.474 21.4C144.498 20.84 145.642 20.56 146.906 20.56C148.17 20.56 149.314 20.84 150.338 21.4C151.362 21.96 152.17 22.76 152.762 23.8C153.354 24.84 153.65 26.032 153.65 27.376C153.65 28.72 153.346 29.912 152.738 30.952C152.13 31.992 151.298 32.8 150.242 33.376C149.202 33.936 148.05 34.216 146.786 34.216ZM146.786 31.84C147.49 31.84 148.146 31.672 148.754 31.336C149.378 31 149.882 30.496 150.266 29.824C150.65 29.152 150.842 28.336 150.842 27.376C150.842 26.416 150.658 25.608 150.29 24.952C149.922 24.28 149.434 23.776 148.826 23.44C148.218 23.104 147.562 22.936 146.858 22.936C146.154 22.936 145.498 23.104 144.89 23.44C144.298 23.776 143.826 24.28 143.474 24.952C143.122 25.608 142.946 26.416 142.946 27.376C142.946 28.8 143.306 29.904 144.026 30.688C144.762 31.456 145.682 31.84 146.786 31.84ZM176.965 17.32L170.701 34H167.533L161.245 17.32H164.173L169.117 31.192L174.085 17.32H176.965ZM178.341 27.328C178.341 26 178.613 24.824 179.157 23.8C179.717 22.776 180.469 21.984 181.413 21.424C182.373 20.848 183.429 20.56 184.581 20.56C185.621 20.56 186.525 20.768 187.293 21.184C188.077 21.584 188.701 22.088 189.165 22.696V20.776H191.925V34H189.165V32.032C188.701 32.656 188.069 33.176 187.269 33.592C186.469 34.008 185.557 34.216 184.533 34.216C183.397 34.216 182.357 33.928 181.413 33.352C180.469 32.76 179.717 31.944 179.157 30.904C178.613 29.848 178.341 28.656 178.341 27.328ZM189.165 27.376C189.165 26.464 188.973 25.672 188.589 25C188.221 24.328 187.733 23.816 187.125 23.464C186.517 23.112 185.861 22.936 185.157 22.936C184.453 22.936 183.797 23.112 183.189 23.464C182.581 23.8 182.085 24.304 181.701 24.976C181.333 25.632 181.149 26.416 181.149 27.328C181.149 28.24 181.333 29.04 181.701 29.728C182.085 30.416 182.581 30.944 183.189 31.312C183.813 31.664 184.469 31.84 185.157 31.84C185.861 31.84 186.517 31.664 187.125 31.312C187.733 30.96 188.221 30.448 188.589 29.776C188.973 29.088 189.165 28.288 189.165 27.376ZM207.495 20.776V34H204.759V32.44C204.327 32.984 203.759 33.416 203.055 33.736C202.367 34.04 201.631 34.192 200.847 34.192C199.807 34.192 198.871 33.976 198.039 33.544C197.223 33.112 196.575 32.472 196.095 31.624C195.631 30.776 195.399 29.752 195.399 28.552V20.776H198.111V28.144C198.111 29.328 198.407 30.24 198.999 30.88C199.591 31.504 200.399 31.816 201.423 31.816C202.447 31.816 203.255 31.504 203.847 30.88C204.455 30.24 204.759 29.328 204.759 28.144V20.776H207.495ZM213.841 16.24V34H211.105V16.24H213.841ZM220.625 23.008V30.328C220.625 30.824 220.737 31.184 220.961 31.408C221.201 31.616 221.601 31.72 222.161 31.72H223.841V34H221.681C220.449 34 219.505 33.712 218.849 33.136C218.193 32.56 217.865 31.624 217.865 30.328V23.008H216.305V20.776H217.865V17.488H220.625V20.776H223.841V23.008H220.625Z" fill="#7288FA"/>
<rect opacity="0.2" width="48" height="48" rx="24" fill="#6D7DD8"/>
<rect x="21" y="20" width="32" height="32" rx="16" fill="#7389FA"/>
</svg>
