<svg width="351" height="82" viewBox="0 0 351 82" fill="none" xmlns="http://www.w3.org/2000/svg">
<path d="M102.72 40.4148C102.72 37.8705 103.306 35.5881 104.478 33.5676C105.676 31.5472 107.285 29.9757 109.305 28.8532C111.351 27.7058 113.583 27.1321 116.003 27.1321C118.771 27.1321 121.228 27.818 123.374 29.1899C125.544 30.5369 127.115 32.4576 128.088 34.952H122.962C122.288 33.5801 121.353 32.5574 120.156 31.8839C118.958 31.2104 117.574 30.8737 116.003 30.8737C114.281 30.8737 112.747 31.2603 111.4 32.0336C110.053 32.8068 108.993 33.9168 108.22 35.3636C107.472 36.8104 107.098 38.4941 107.098 40.4148C107.098 42.3355 107.472 44.0192 108.22 45.466C108.993 46.9127 110.053 48.0352 111.4 48.8334C112.747 49.6067 114.281 49.9933 116.003 49.9933C117.574 49.9933 118.958 49.6566 120.156 48.9831C121.353 48.3096 122.288 47.2869 122.962 45.915H128.088C127.115 48.4094 125.544 50.3301 123.374 51.677C121.228 53.024 118.771 53.6975 116.003 53.6975C113.558 53.6975 111.326 53.1363 109.305 52.0138C107.285 50.8664 105.676 49.2824 104.478 47.2619C103.306 45.2415 102.72 42.9591 102.72 40.4148ZM143.744 32.52C145.316 32.52 146.713 32.8567 147.935 33.5302C149.182 34.2037 150.155 35.2015 150.853 36.5235C151.577 37.8455 151.938 39.442 151.938 41.3128V53.473H147.71V41.9488C147.71 40.103 147.249 38.6936 146.326 37.7208C145.403 36.7231 144.143 36.2242 142.547 36.2242C140.951 36.2242 139.678 36.7231 138.731 37.7208C137.808 38.6936 137.346 40.103 137.346 41.9488V53.473H133.081V25.7851H137.346V35.2514C138.07 34.3783 138.98 33.7048 140.078 33.2309C141.2 32.7569 142.422 32.52 143.744 32.52ZM161.645 35.85C162.268 34.8024 163.091 33.9917 164.114 33.418C165.162 32.8193 166.397 32.52 167.818 32.52V36.9351H166.733C165.062 36.9351 163.79 37.3591 162.917 38.2072C162.069 39.0553 161.645 40.527 161.645 42.6223V53.473H157.379V32.8567H161.645V35.85ZM180.682 53.8098C178.736 53.8098 176.977 53.3732 175.406 52.5002C173.834 51.6022 172.6 50.355 171.702 48.7586C170.804 47.1372 170.355 45.2664 170.355 43.1462C170.355 41.0509 170.816 39.1925 171.739 37.5712C172.662 35.9498 173.922 34.7026 175.518 33.8295C177.115 32.9565 178.898 32.52 180.869 32.52C182.839 32.52 184.623 32.9565 186.219 33.8295C187.816 34.7026 189.075 35.9498 189.998 37.5712C190.921 39.1925 191.383 41.0509 191.383 43.1462C191.383 45.2415 190.909 47.0998 189.961 48.7212C189.013 50.3425 187.716 51.6022 186.07 52.5002C184.448 53.3732 182.652 53.8098 180.682 53.8098ZM180.682 50.1056C181.779 50.1056 182.802 49.8437 183.75 49.3198C184.723 48.796 185.508 48.0103 186.107 46.9626C186.706 45.915 187.005 44.6428 187.005 43.1462C187.005 41.6495 186.718 40.3898 186.144 39.3671C185.571 38.3195 184.81 37.5337 183.862 37.0099C182.914 36.4861 181.891 36.2242 180.794 36.2242C179.696 36.2242 178.674 36.4861 177.726 37.0099C176.803 37.5337 176.067 38.3195 175.518 39.3671C174.969 40.3898 174.695 41.6495 174.695 43.1462C174.695 45.3662 175.256 47.0873 176.379 48.3096C177.526 49.5069 178.961 50.1056 180.682 50.1056ZM206.001 32.52C207.622 32.52 209.069 32.8567 210.341 33.5302C211.638 34.2037 212.649 35.2015 213.372 36.5235C214.095 37.8455 214.457 39.442 214.457 41.3128V53.473H210.229V41.9488C210.229 40.103 209.768 38.6936 208.845 37.7208C207.922 36.7231 206.662 36.2242 205.066 36.2242C203.469 36.2242 202.197 36.7231 201.249 37.7208C200.326 38.6936 199.865 40.103 199.865 41.9488V53.473H195.599V32.8567H199.865V35.2139C200.563 34.3658 201.449 33.7048 202.521 33.2309C203.619 32.7569 204.779 32.52 206.001 32.52ZM228.84 53.8098C226.895 53.8098 225.136 53.3732 223.565 52.5002C221.993 51.6022 220.758 50.355 219.86 48.7586C218.962 47.1372 218.513 45.2664 218.513 43.1462C218.513 41.0509 218.975 39.1925 219.898 37.5712C220.821 35.9498 222.08 34.7026 223.677 33.8295C225.273 32.9565 227.057 32.52 229.027 32.52C230.998 32.52 232.781 32.9565 234.378 33.8295C235.974 34.7026 237.234 35.9498 238.157 37.5712C239.08 39.1925 239.541 41.0509 239.541 43.1462C239.541 45.2415 239.067 47.0998 238.12 48.7212C237.172 50.3425 235.875 51.6022 234.228 52.5002C232.607 53.3732 230.811 53.8098 228.84 53.8098ZM228.84 50.1056C229.938 50.1056 230.961 49.8437 231.908 49.3198C232.881 48.796 233.667 48.0103 234.266 46.9626C234.864 45.915 235.164 44.6428 235.164 43.1462C235.164 41.6495 234.877 40.3898 234.303 39.3671C233.729 38.3195 232.969 37.5337 232.021 37.0099C231.073 36.4861 230.05 36.2242 228.953 36.2242C227.855 36.2242 226.832 36.4861 225.884 37.0099C224.962 37.5337 224.226 38.3195 223.677 39.3671C223.128 40.3898 222.854 41.6495 222.854 43.1462C222.854 45.3662 223.415 47.0873 224.537 48.3096C225.685 49.5069 227.119 50.1056 228.84 50.1056ZM275.89 27.4688L266.124 53.473H261.185L251.382 27.4688H255.947L263.655 49.0953L271.4 27.4688H275.89ZM278.035 43.0713C278.035 41.001 278.459 39.1676 279.307 37.5712C280.18 35.9747 281.353 34.74 282.824 33.867C284.321 32.969 285.967 32.52 287.763 32.52C289.385 32.52 290.794 32.8443 291.991 33.4928C293.213 34.1164 294.186 34.9021 294.91 35.85V32.8567H299.213V53.473H294.91V50.4049C294.186 51.3777 293.201 52.1884 291.954 52.8369C290.707 53.4855 289.285 53.8098 287.688 53.8098C285.917 53.8098 284.296 53.3608 282.824 52.4628C281.353 51.5399 280.18 50.2677 279.307 48.6463C278.459 47 278.035 45.1417 278.035 43.0713ZM294.91 43.1462C294.91 41.7244 294.61 40.4896 294.012 39.442C293.438 38.3943 292.677 37.5961 291.729 37.0473C290.781 36.4986 289.759 36.2242 288.661 36.2242C287.564 36.2242 286.541 36.4986 285.593 37.0473C284.645 37.5712 283.872 38.3569 283.273 39.4045C282.7 40.4273 282.413 41.6495 282.413 43.0713C282.413 44.4931 282.7 45.7404 283.273 46.8129C283.872 47.8855 284.645 48.7087 285.593 49.2824C286.566 49.8312 287.589 50.1056 288.661 50.1056C289.759 50.1056 290.781 49.8312 291.729 49.2824C292.677 48.7336 293.438 47.9354 294.012 46.8878C294.61 45.8152 294.91 44.568 294.91 43.1462ZM323.486 32.8567V53.473H319.22V51.041C318.547 51.8891 317.661 52.5626 316.564 53.0614C315.491 53.5354 314.344 53.7724 313.121 53.7724C311.5 53.7724 310.041 53.4356 308.744 52.7621C307.472 52.0886 306.461 51.0909 305.713 49.7688C304.99 48.4468 304.628 46.8504 304.628 44.9796V32.8567H308.856V44.3435C308.856 46.1893 309.317 47.6112 310.24 48.6089C311.163 49.5817 312.423 50.0682 314.019 50.0682C315.616 50.0682 316.875 49.5817 317.798 48.6089C318.746 47.6112 319.22 46.1893 319.22 44.3435V32.8567H323.486ZM333.379 25.7851V53.473H329.114V25.7851H333.379ZM343.956 36.3364V47.7484C343.956 48.5216 344.13 49.0829 344.479 49.4321C344.853 49.7564 345.477 49.9185 346.35 49.9185H348.969V53.473H345.602C343.681 53.473 342.209 53.024 341.187 52.126C340.164 51.2281 339.653 49.7688 339.653 47.7484V36.3364H337.221V32.8567H339.653V27.7307H343.956V32.8567H348.969V36.3364H343.956Z" fill="white"/>
<rect opacity="0.2" width="74.8323" height="74.8323" rx="37.4161" fill="white"/>
<rect x="32.7393" y="31.1801" width="49.8882" height="49.8882" rx="24.9441" fill="white"/>
</svg>
